# xmcd
#
# Track frame offsets:
#	150
#	22627
#	38437
#	54805
#	71605
#	86508
#	102049
#	113652
#	130319
#	145948
#
# Disc length: 2171 seconds
#
# Revision: 0
# Processed by: cddbd v1.5.2PL0 Copyright (c) Steve Scherf et al.
# Submitted via: EZCDAudioConverter 5.0.5.1
#
DISCID=6f08790a
DTITLE=Francis D'Octobre - Ma bete fragile
DYEAR=2010
DGENRE=Chanson quebecoise
TTITLE0=L'homme a la mer
TTITLE1=Le present
TTITLE2=Ame soeur
TTITLE3=Bouquet lilas
TTITLE4=Ma bete fragile
TTITLE5=La pieuvre et le tigre
TTITLE6=Petite priere de chevet
TTITLE7=Noeud papillon noir
TTITLE8=Notre legerete
TTITLE9=Chercheur d'or
EXTD=
EXTT0=
EXTT1=
EXTT2=
EXTT3=
EXTT4=
EXTT5=
EXTT6=
EXTT7=
EXTT8=
EXTT9=
PLAYORDER=
